<svg width="13" height="15" viewBox="0 0 13 15" fill="none" xmlns="http://www.w3.org/2000/svg">
<g filter="url(#filter0_d_1_2)">
<path d="M2.5625 12V3.27273H6.32955C6.97727 3.27273 7.54403 3.40057 8.02983 3.65625C8.51563 3.91193 8.89347 4.27131 9.16335 4.73438C9.43324 5.19744 9.56818 5.73864 9.56818 6.35795C9.56818 6.98295 9.42898 7.52415 9.15057 7.98153C8.875 8.43892 8.48722 8.79119 7.98722 9.03835C7.49006 9.28551 6.90909 9.40909 6.24432 9.40909H3.99432V7.56818H5.76705C6.04545 7.56818 6.28267 7.51989 6.47869 7.4233C6.67756 7.32386 6.82955 7.18324 6.93466 7.00142C7.04261 6.8196 7.09659 6.60511 7.09659 6.35795C7.09659 6.10795 7.04261 5.89489 6.93466 5.71875C6.82955 5.53977 6.67756 5.40341 6.47869 5.30966C6.28267 5.21307 6.04545 5.16477 5.76705 5.16477H4.93182V12H2.5625Z" fill="black"/>
</g>
<defs>
<filter id="filter0_d_1_2" x="0.0625" y="0.772728" width="12.0057" height="13.7273" filterUnits="userSpaceOnUse" color-interpolation-filters="sRGB">
<feFlood flood-opacity="0" result="BackgroundImageFix"/>
<feColorMatrix in="SourceAlpha" type="matrix" values="0 0 0 0 0 0 0 0 0 0 0 0 0 0 0 0 0 0 127 0" result="hardAlpha"/>
<feOffset/>
<feGaussianBlur stdDeviation="1.25"/>
<feComposite in2="hardAlpha" operator="out"/>
<feColorMatrix type="matrix" values="0 0 0 0 0 0 0 0 0 0 0 0 0 0 0 0 0 0 0.25 0"/>
<feBlend mode="normal" in2="BackgroundImageFix" result="effect1_dropShadow_1_2"/>
<feBlend mode="normal" in="SourceGraphic" in2="effect1_dropShadow_1_2" result="shape"/>
</filter>
</defs>
</svg>
